# xmcd
#
# Track frame offsets:
# 150
# 13866
# 25752
# 35767
# 49328
# 63865
# 75906
# 90079
# 101994
# 126568
# 136953
#
# Disc length: 1961 seconds
#
#
# Revision: 0
# Processed by: cddbd v1.4PL0 Copyright (c) Steve Scherf et al.
# Submitted via: FreeRIP 2.00 
#
DISCID=8b07a70b
DTITLE=Waylon Jennings - Cowboys, Sisters, Rascals and Dirt
DYEAR=1986
DGENRE=Country
TTITLE0=I'm Little
TTITLE1=I Just Can't Wait
TTITLE2=When I Get Big
TTITLE3=All Of My Sisters Are Girls
TTITLE4=A Bad Day
TTITLE5=Dirt
TTITLE6=Cowboy Movies
TTITLE7=If I Could Only Fly
TTITLE8=Useless (The Little Horse That Didn't Crow) (Spoken Word)
TTITLE9=Small Packages
TTITLE10=Shooter's Theme
EXTD=Rhino RN\n70602
EXTT0=
EXTT1=
EXTT2=
EXTT3=
EXTT4=
EXTT5=
EXTT6=
EXTT7=
EXTT8=
EXTT9=
EXTT10=
PLAYORDER=
